<svg xmlns="http://www.w3.org/2000/svg" xml:space="preserve" id="Livello_1" x="0" y="0" version="1.1" viewBox="0 0 444.5 157.7">
  <style>
    .st1{fill:#fcf7e6}.st2{fill:#66ccc9}
  </style>
  <g id="_x30_8_RG_LOGHI">
    <linearGradient id="SVGID_1_" x1="316.9" x2="416.8" y1="52.8" y2="52.8" gradientTransform="matrix(1 0 0 -1 0 158.724)" gradientUnits="userSpaceOnUse">
      <stop offset=".001" stop-color="#66ccc9" stop-opacity="0"/>
      <stop offset="1" stop-color="#66ccc9" stop-opacity=".9"/>
    </linearGradient>
    <path fill="url(#SVGID_1_)" d="M400.2 99.1h-83.3v13.6h99.9V99.1h-16.6z"/>
    <path d="M45.7 85.5h5.8v22.1H64v5.1H45.7V85.5zm40.8 0h5.8v27.2h-5.8V85.5zm52.7 15.6c.8 1.2 1.2 2.6 1.2 4.3 0 2.4-.9 4.2-2.6 5.5-1.7 1.3-4.2 1.9-7.4 1.9h-12.9V85.6h12.2c3 0 5.4.6 7 1.9 1.6 1.3 2.4 3 2.4 5.2 0 1.3-.3 2.5-.9 3.5-.6 1-1.4 1.9-2.4 2.4 1.5.5 2.6 1.3 3.4 2.5zm-16-10.8v6.4h5.7c1.4 0 2.5-.3 3.2-.8.7-.5 1.1-1.3 1.1-2.4 0-1.1-.4-1.9-1.1-2.4s-1.8-.8-3.2-.8h-5.7zm10.2 16.9c.8-.5 1.2-1.4 1.2-2.5 0-2.3-1.5-3.4-4.6-3.4h-6.7v6.7h6.7c1.5 0 2.6-.3 3.4-.8zm46.6 5.5-4.8-7.6h-5.3v7.6h-5.8V85.5h10.8c2.2 0 4.1.4 5.8 1.2 1.6.8 2.9 1.9 3.8 3.4.9 1.5 1.3 3.2 1.3 5.2s-.4 3.8-1.3 5.2c-.9 1.5-2.2 2.6-3.8 3.4l5.6 8.7H180v.1zm-1.5-20.8c-.9-.8-2.2-1.2-4-1.2h-4.7v9.5h4.7c1.7 0 3.1-.4 4-1.2s1.4-2 1.4-3.5c0-1.6-.5-2.8-1.4-3.6zm47.5 15h-11.6l-2.2 5.8h-5.9l11.1-27.2h5.7l11.2 27.2h-6.1l-2.2-5.8zm-1.8-4.8-4-10.4-4 10.4h8zm47.9 10.6-4.8-7.6H262v7.6h-5.8V85.5H267c2.2 0 4.1.4 5.8 1.2 1.6.8 2.9 1.9 3.8 3.4s1.3 3.2 1.3 5.2-.4 3.8-1.3 5.2c-.9 1.5-2.2 2.6-3.8 3.4l5.6 8.7h-6.3v.1zm-1.4-20.8c-.9-.8-2.2-1.2-4-1.2H262v9.5h4.7c1.7 0 3.1-.4 4-1.2s1.4-2 1.4-3.5c-.1-1.6-.5-2.8-1.4-3.6zm46.2 11.2v9.6h-5.8V103l-9.7-17.5h6.1l6.7 12.1 6.7-12.1h5.7l-9.7 17.6z" class="st1"/>
    <path d="M0 99h13.7v13.7H0V99z" class="st2"/>
    <path d="M403.3 99.1H417v13.7h-13.7V99.1z" class="st1"/>
    <path d="M430.8 84.7h13.7v13.7h-13.7V84.7z" class="st2"/>
    <path d="M375.7 71.1h13.7v13.7h-13.7V71.1z" class="st1"/>
    <linearGradient id="SVGID_2_" x1="254.6" x2="320.9" y1="94.95" y2="94.95" gradientTransform="matrix(1 0 0 -1 0 158.724)" gradientUnits="userSpaceOnUse">
      <stop offset=".002" stop-color="#66ccc9" stop-opacity="0"/>
      <stop offset="1" stop-color="#66ccc9" stop-opacity=".65"/>
    </linearGradient>
    <path fill="url(#SVGID_2_)" d="M304.3 56.9h-49.7v13.7h66.3V56.9h-16.6z"/>
    <path d="M307.2 56.9h13.7v13.7h-13.7V56.9z" class="st2"/>
    <g>
      <path d="M.1 43.4h11.4c2.7 0 5.1.6 7.2 1.7s3.7 2.7 4.9 4.8c1.2 2 1.7 4.4 1.7 7.1s-.6 5.1-1.7 7.1c-1.2 2-2.8 3.6-4.9 4.8-2.1 1.1-4.5 1.7-7.2 1.7H.1V43.4zm11.1 22.1c2.5 0 4.5-.8 6-2.3s2.2-3.6 2.2-6.2-.7-4.6-2.2-6.2c-1.5-1.5-3.5-2.3-6-2.3H5.9v16.9l5.3.1zm34.5-22.1h5.8v27.2h-5.8V43.4zm44.6 13.2h5.3v11c-1.4 1.1-2.9 2-4.7 2.6s-3.6.9-5.4.9c-2.6 0-4.9-.6-7-1.8-2.1-1.2-3.7-2.9-4.9-5s-1.8-4.6-1.8-7.2c0-2.7.6-5.1 1.8-7.2s2.8-3.8 4.9-5 4.4-1.8 7.1-1.8c2.2 0 4.2.4 6 1.2 1.8.8 3.3 2 4.5 3.5l-3.7 3.7c-1.8-2-3.9-3.1-6.5-3.1-1.6 0-3 .4-4.2 1.1s-2.2 1.7-2.9 3.1c-.7 1.3-1 2.8-1 4.5s.3 3.2 1 4.5 1.6 2.4 2.9 3.1c1.2.7 2.6 1.1 4.2 1.1 1.7 0 3.2-.4 4.5-1.2v-8h-.1zm33.5-13.2h5.8v27.2h-5.8V43.4zm39.7 5.2h-8v-5.1h21.8v5.1h-8v22.1h-5.8V48.6zm53 16.2h-11.6l-2.2 5.8h-5.9l11.1-27.2h5.7l11.2 27.2h-6.1l-2.2-5.8zm-1.8-4.8-4-10.4-4 10.4h8zm34.1-16.6h5.8v22.1h12.5v5.1h-18.3V43.4z" class="st1"/>
    </g>
  </g>
</svg>
