<svg xmlns="http://www.w3.org/2000/svg" xml:space="preserve" id="Livello_6" x="0" y="0" version="1.1" viewBox="0 0 308.8 100">
  <style>
    .st0{fill:#fff}.st1{fill:#274154}
  </style>
  <path d="M123.5 19.2c.1-.4.3-.7.4-1.1.1-.3.3-.7.5-1L133.3 1c.2-.3.3-.5.5-.6s.5-.1.8-.1h2.9v26.9h-3.4V7c0-.3 0-.6.1-.9l-9 16.5c-.1.3-.3.5-.6.7s-.5.2-.8.2h-.5c-.6 0-1.1-.3-1.4-.9L112.6 6c0 .3.1.7.1 1v20.2h-3.4V.3h2.9c.3 0 .6 0 .8.1.2.1.4.2.5.6l9.1 16.3c.3.5.6 1.2.9 1.9zM148.3 27.2h-3.9V.3h3.9v26.9zM157.9.4c.2.1.4.3.6.5l15.3 19.8c0-.3-.1-.7-.1-1V.3h3.4v26.9h-1.9c-.3 0-.6 0-.8-.2-.2-.1-.4-.3-.6-.5L158.4 6.7c0 .3.1.7.1 1V27.3h-3.4V.3h2c.4 0 .7 0 .8.1zM187.9 27.2H184V.3h3.9v26.9zM208.6 4.6c-.1.2-.2.3-.4.4-.1.1-.3.1-.5.1s-.5-.1-.8-.3c-.3-.2-.6-.4-1.1-.7-.4-.3-.9-.5-1.6-.7-.6-.2-1.3-.3-2.1-.3s-1.5.1-2.1.3-1 .6-1.4 1c-.4.4-.7.8-.9 1.3-.2.5-.3 1-.3 1.6 0 .7.2 1.3.6 1.8.4.5.9.9 1.4 1.2.6.3 1.3.6 2.1.9s1.6.5 2.4.8l2.4.9c.8.3 1.4.8 2.1 1.3s1.1 1.2 1.4 2 .6 1.7.6 2.8c0 1.2-.2 2.3-.6 3.3s-1 1.9-1.8 2.7-1.7 1.4-2.9 1.8c-1.1.4-2.4.7-3.8.7-.9 0-1.7-.1-2.5-.2s-1.6-.4-2.3-.7c-.7-.3-1.4-.7-2-1.1s-1.2-.9-1.7-1.5l1.1-1.8c.1-.1.2-.3.4-.4.2-.1.3-.1.5-.1.3 0 .6.1.9.4.3.3.8.6 1.3.9.5.3 1.1.6 1.8.9.7.3 1.6.4 2.6.4.8 0 1.6-.1 2.2-.3.7-.2 1.2-.5 1.7-1 .5-.4.8-.9 1-1.5s.4-1.2.4-2-.2-1.5-.6-2c-.4-.5-.9-.9-1.4-1.3-.6-.3-1.3-.6-2-.9s-1.6-.5-2.4-.7l-2.4-.9c-.8-.3-1.4-.8-2-1.3s-1.1-1.2-1.4-2-.6-1.8-.6-3c0-.9.2-1.9.6-2.8s.9-1.7 1.6-2.4 1.6-1.2 2.6-1.7 2.2-.6 3.6-.6c1.5 0 2.9.2 4.1.7 1.2.5 2.4 1.2 3.3 2.1l-1.1 1.9zM233.6.3v3.2H225v23.6h-3.9V3.6h-8.6V.3h21.1zM254.3.3v3.2h-12.8v8.6h10.3v3h-10.3V24h12.8v3.1h-16.6V.3h16.6zM263.4 16.1v11.1h-3.9V.3h7.7c1.7 0 3.2.2 4.5.5s2.3.9 3.1 1.5 1.4 1.5 1.8 2.4c.4.9.6 1.9.6 3.1 0 1-.1 1.8-.4 2.7s-.7 1.6-1.3 2.2c-.6.7-1.2 1.2-2 1.7s-1.7.8-2.7 1.1c.5.3.9.7 1.2 1.2l7.7 10.5h-3.5c-.7 0-1.2-.3-1.5-.8L268 17c-.2-.3-.4-.5-.7-.6-.2-.1-.6-.2-1.1-.2h-2.8v-.1zm0-2.8h3.7c1 0 2-.1 2.7-.4.8-.2 1.4-.6 2-1.1.5-.5.9-1 1.2-1.6s.4-1.3.4-2.1c0-1.6-.5-2.7-1.5-3.5-1-.8-2.6-1.2-4.6-1.2h-3.8l-.1 9.9c-.1 0 0 0 0 0zM307.9 13.7c0 2-.3 3.9-1 5.5-.6 1.7-1.5 3.1-2.7 4.3-1.2 1.2-2.6 2.1-4.2 2.8-1.6.7-3.5 1-5.4 1-2 0-3.8-.3-5.4-1s-3-1.6-4.2-2.8-2.1-2.7-2.7-4.3c-.6-1.7-1-3.5-1-5.5s.3-3.8 1-5.5c.6-1.7 1.5-3.1 2.7-4.4 1.2-1.2 2.6-2.2 4.2-2.8s3.4-1 5.4-1c2 0 3.8.3 5.4 1 1.6.7 3 1.6 4.2 2.8s2.1 2.7 2.7 4.4c.7 1.7 1 3.5 1 5.5zm-3.9 0c0-1.6-.2-3.1-.7-4.3-.4-1.3-1.1-2.4-1.9-3.3s-1.8-1.6-3-2-2.4-.7-3.9-.7c-1.4 0-2.7.2-3.9.7-1.1.5-2.1 1.2-3 2.1-.8.9-1.5 2-1.9 3.3s-.7 2.7-.7 4.3c0 1.6.2 3.1.7 4.4.4 1.3 1.1 2.4 1.9 3.3s1.8 1.6 3 2 2.4.7 3.9.7c1.4 0 2.7-.2 3.9-.7s2.1-1.1 3-2 1.4-2 1.9-3.3c.4-1.4.7-2.8.7-4.5zM128.8 48.2c0 1.7-.3 3.2-.8 4.6-.5 1.4-1.3 2.6-2.3 3.5s-2.1 1.7-3.5 2.3c-1.4.5-2.9.8-4.5.8h-8.4V37h8.4c1.7 0 3.2.3 4.5.8 1.4.5 2.5 1.3 3.5 2.3 1 1 1.7 2.2 2.3 3.5.5 1.4.8 3 .8 4.6zm-3.3 0c0-1.3-.2-2.5-.6-3.6-.4-1.1-.9-2-1.6-2.7-.7-.7-1.5-1.3-2.5-1.7s-2-.6-3.2-.6h-5.2v17.1h5.2c1.2 0 2.3-.2 3.2-.6 1-.4 1.8-1 2.5-1.7s1.2-1.6 1.6-2.7c.4-.9.6-2.1.6-3.5zM146.8 37v2.6h-10.6v7.2h8.6v2.5h-8.6v7.4h10.6v2.6H133V37h13.8zM154.2 56.7h9.6v2.7H151V37h3.2v19.7zM170.2 56.7h9.6v2.7H167V37h3.2v19.7zM201.4 59.4h-2.5c-.3 0-.5-.1-.7-.2-.2-.1-.3-.3-.4-.5l-2-5.2h-9.9l-2 5.2c-.1.2-.2.4-.4.5s-.4.2-.7.2h-2.5l8.9-22.4h3.3l8.9 22.4zm-14.6-8.3h8.1l-3.4-8.8c-.1-.3-.2-.6-.4-1s-.2-.8-.4-1.2l-.3 1.2c-.1.4-.2.7-.3 1l-3.3 8.8zM131.1 93.2c.2 0 .4.1.6.3l1.7 1.9c-1.2 1.4-2.8 2.6-4.5 3.4-1.8.8-3.9 1.2-6.4 1.2-2.2 0-4.2-.4-6-1.1-1.8-.8-3.3-1.8-4.6-3.2-1.3-1.4-2.2-3-2.9-4.9-.7-1.9-1-4-1-6.3s.4-4.4 1.1-6.3c.7-1.9 1.7-3.5 3.1-4.9s2.9-2.4 4.7-3.2 3.8-1.1 6.1-1.1c2.2 0 4.1.3 5.8 1.1 1.7.7 3.1 1.7 4.4 2.8l-1.4 2c-.1.1-.2.3-.4.3s-.3.1-.6.1-.6-.1-.9-.4-.8-.6-1.4-.9-1.3-.6-2.2-.9c-.9-.3-2-.4-3.2-.4-1.5 0-2.9.3-4.2.8-1.3.5-2.4 1.3-3.3 2.3-.9 1-1.6 2.2-2.1 3.7s-.8 3.1-.8 4.9c0 1.9.3 3.5.8 5s1.3 2.7 2.2 3.7c.9 1 2 1.8 3.3 2.3 1.3.5 2.6.8 4.1.8.9 0 1.7-.1 2.4-.2s1.4-.3 2-.5c.6-.2 1.2-.5 1.7-.8s1-.7 1.6-1.2c.1-.1.2-.2.4-.2-.4-.1-.2-.1-.1-.1zM152.2 96.2c1.2 0 2.3-.2 3.3-.6 1-.4 1.8-1 2.5-1.8s1.2-1.6 1.5-2.7c.4-1 .5-2.2.5-3.4V69.3h4.4v18.4c0 1.8-.3 3.4-.9 4.9-.6 1.5-1.4 2.8-2.4 3.9-1.1 1.1-2.3 2-3.8 2.6s-3.2.9-5.1.9c-1.9 0-3.6-.3-5.1-.9s-2.8-1.5-3.8-2.6-1.9-2.4-2.4-3.9c-.6-1.5-.9-3.2-.9-4.9V69.3h4.4v18.4c0 1.2.2 2.4.5 3.4s.9 1.9 1.5 2.7c.7.8 1.5 1.3 2.5 1.8 1 .3 2.1.6 3.3.6zM178.3 96h13v3.7h-17.4V69.3h4.4V96zM214.7 69.3V73H205v26.7h-4.4V72.9h-9.7v-3.7h23.8zM233.2 96.2c1.2 0 2.3-.2 3.3-.6 1-.4 1.8-1 2.5-1.8s1.2-1.6 1.5-2.7c.4-1 .5-2.2.5-3.4V69.3h4.4v18.4c0 1.8-.3 3.4-.9 4.9-.6 1.5-1.4 2.8-2.4 3.9-1.1 1.1-2.3 2-3.8 2.6s-3.2.9-5.1.9c-1.9 0-3.6-.3-5.1-.9s-2.8-1.5-3.8-2.6-1.9-2.4-2.4-3.9c-.6-1.5-.9-3.2-.9-4.9V69.3h4.4v18.4c0 1.2.2 2.4.5 3.4s.9 1.9 1.5 2.7c.7.8 1.5 1.3 2.5 1.8 1 .3 2.1.6 3.3.6zM259.2 87.1v12.5h-4.4V69.3h8.7c2 0 3.6.2 5 .6 1.4.4 2.6 1 3.5 1.7s1.6 1.6 2 2.7c.4 1.1.7 2.2.7 3.5 0 1.1-.2 2.1-.5 3s-.8 1.8-1.4 2.5c-.6.7-1.4 1.4-2.3 1.9s-2 .9-3.1 1.2c.5.3 1 .8 1.4 1.4l8.7 11.9h-3.9c-.8 0-1.4-.3-1.7-.9l-7.6-10.7c-.2-.3-.5-.6-.8-.7s-.7-.2-1.3-.2l-3-.1zm0-3.2h4.2c1.2 0 2.2-.1 3.1-.4s1.6-.7 2.2-1.2c.6-.5 1-1.1 1.4-1.8.3-.7.5-1.5.5-2.4 0-1.8-.6-3.1-1.7-4s-2.9-1.4-5.2-1.4h-4.3v11.2zM308.8 99.7h-3.4c-.4 0-.7-.1-.9-.3s-.4-.4-.5-.8l-2.7-7.1h-13.5l-2.7 7.1c-.1.3-.3.5-.5.7s-.6.3-.9.3h-3.4l12.1-30.4h4.4l12 30.5zm-19.9-11.4H300l-4.6-12c-.2-.4-.3-.8-.5-1.3s-.3-1.1-.5-1.6c-.2.6-.3 1.1-.5 1.7s-.3.9-.5 1.3l-4.5 11.9zM99.4 99.7H0V75.5h.9L.5.8h98.4l.5 55.2z" class="st0"/>
  <g>
    <path d="M22.4 99.7V83.1c0-.4 0-.7.1-1.1l-7.4 13.8c-.2.3-.4.6-.7.7-.3.2-.6.3-.9.3h-.6c-.4 0-.7-.1-.9-.3s-.5-.4-.7-.7L3.9 82c0 .4.1.7.1 1.1v16.6h18.4z" class="st1"/>
    <path d="M0 .3v75.2h3.9c.1 0 .3 0 .4.1.1.1.2.1.3.2s.2.2.3.4l7.3 13.5c.2.4.4.7.5 1.1s.3.8.5 1.2c.2-.4.3-.8.5-1.2s.4-.8.5-1.1l7.2-13.5c.1-.2.2-.3.3-.4.1-.1.2-.2.3-.2s.2-.1.4-.1h3.9v24.2h4.9V82.6h4.2v17.1h11.9c-.1 0-.2-.1-.4-.1-.4-.1-.8-.3-1.2-.4-1.4-.6-2.7-1.5-3.7-2.6s-1.8-2.4-2.3-3.9c-.5-1.5-.8-3.2-.8-5 0-1.8.3-3.5.9-5s1.5-2.8 2.6-3.9 2.4-1.9 3.9-2.6c1.5-.6 3.2-.9 5.1-.9 1.8 0 3.4.3 4.7.9s2.5 1.3 3.5 2.3l-1.5 2.1-.3.3c-.1.1-.3.1-.5.1-.3 0-.5-.1-.8-.3-.3-.2-.6-.4-1-.7-.4-.2-.9-.4-1.6-.7-.6-.2-1.4-.3-2.4-.3-1.2 0-2.2.2-3.2.6-1 .4-1.8 1-2.5 1.7s-1.2 1.6-1.6 2.7c-.4 1.1-.6 2.2-.6 3.6s.2 2.6.6 3.7.9 2 1.6 2.7 1.4 1.3 2.3 1.7c.9.4 1.9.6 2.9.6.6 0 1.2 0 1.7-.1s1-.2 1.4-.3.8-.3 1.2-.6c.4-.2.8-.5 1.1-.8.1-.1.2-.2.3-.2s.3-.1.4-.1c.2 0 .5.1.6.3l1.8 1.9c-1 1.2-2.2 2.2-3.6 2.8-.4.2-.8.3-1.3.5-.1 0-.2.1-.4.1h26.9c.2-1.2.4-2.4.5-3.7.1-1.5.2-3 .2-4.6 0-.8 0-1.5-.1-2.3.2-.2.5-.4.7-.5.1-.1.6-.3 1.3-.8.6-.3 1.3-.7 2-1.1.8-.5 1.7-.9 1.9-1.1 1.6-1.1 2.7-2.7 3.3-4.7.2-.6.3-1.3.3-1.6 0-.3-.1-.8-.2-1-.1-.1-.3-.2-.5-.3h-.2l-.1.3c-.1.2-.1.5-.2.7-.4 1.5-1.1 2.4-2.6 3.1-.9.5-2 .7-2.9.8h-.7c-1.2-.1-2.1-.6-2.6-1.6s-.8-3-.5-4.5c.1-.6.2-.8.3-1.1.2-.5.8-.9 1.3-1 .4-.1 1.1 0 1.5.2.4.2.8.8 1 1.4.1.3.3.6.5.8.1.1.2.1.3.2.5.2 1.1.1 2.5-.6l.8-.4h.3c.3 0 .3 0 .6.2.6.3.6.3.6.2v-.2c0-.2 0-.2-.2-.3-.6-.5-.7-.6-.8-.9-.2-.4-.2-.9-.1-1.2.1-.2.2-.2.4-.4.3-.2.4-.4.5-1 0-.3 0-.6-.1-.9-.1-.4-.3-.6-.8-1.3-.4-.4-.4-.6-.4-.9 0-.4.2-.8.5-1.2.5-.5.6-.9.6-1.5 0-.4 0-.5-.3-1l-.2-.4c-.1-.4 0-.9.2-1.2.2-.2 1-.5 1.8-.7 1.3-.3 1.7-.9 1.8-2.1 0-.4 0-.5-.2-.6h-.3c-.7.4-1.1.5-2.2.7-1.5.2-2.2.5-3.8 1.4-.5.3-.9.5-1.2.7-.5.3-.8.4-1.1.4-.6.1-1.1-.2-1.6-.7-.2-.3-.5-.5-.7-.6-.2-.1-.5-.1-.6 0-.1.1-.3.3-.3.6-.1.4-.1.5.2.8.1.1.4.3.7.5.6.4.9.6 1.3 1.1.5.6.8.7 1.5.7.2 0 .4 0 .6.1.5.1 1.1.2 1.2.3.1 0 .1.1.2.2.3.6-.1 1.7-1.1 2.7l-.2.2c-.5.4-1 .8-1.6 1-.5.2-.6.2-1.2.2-.9 0-1.1.1-1.8.6-.2.2-.6.3-.7.4-.3.2-.9.4-1.2.4-.5.1-.9-.1-1.4-.4l-.4-.4c-.6-.7-1.2-.9-2.2-1.1-.2 0-.6-.1-.7-.1-.2 0-1.9-.6-3.8-1.3-6.3-2.1-6.1-2.1-8.2-2.9-2-.9-2.7-1.3-3.3-2.1-.4-.5-.6-1-.8-2-.3-1.4-.4-2.4-.4-3.3 0-.9.1-1.4.3-1.6.3-.2.5-.2 1.1 0 .4.2.4.2.7.2.3 0 .3 0 .5-.1.4-.2.6-.2 1.6-.2h1l-.1-.1c0-.1-.5-.6-1.1-1.3-.5-.7-1.1-1.3-1.3-1.5-.1-.5-.1-.5-.6-.5h-1.5c-.7-.1-2.2-.4-2.2-.5-.1-.1-.2-.2-.2-.4s0-.2.7-.4c.5-.2.6-.2.8-.4.2-.2.3-.5.4-1.1 0-.7-.1-1.2-.7-2.2-.2-.3-.3-.6-.4-.8-.2-.4-.3-.7-.4-1.2-.1-.5-.1-.5 0-.6.3-.2 1.2-.2 1.7-.1.4.1 1 .2 1.3.2.2 0 .3 0 .5-.2.1-.1.3-.2.5-.4.1-.1.4-.3.6-.4.5-.3 1.1-.7 1.8-1.3.3-.3 1-.7 1.4-1.1 1.3-1 2.1-1.6 2.6-2.1 1.6-1.3 2.9-2.8 4-4.2.3-.5.5-.7.7-1.4.2-.6.4-1 .7-1.4.1-.2.6-.6 1-1.1s.9-.9.9-1c.2-.3.4-.7.5-1 .1-.6.1-1.9-.1-2.3-.1-.1-.2-.3-.5-.4h-.7c-.2.1-.5.3-.7.6-.3.3-.5.6-.7 1.1-.1.2-.2.5-.3.7-.2.3-.6.8-1 1.1-.2.1-.6.4-.8.7-.8.7-.8.7-1.3 1-.9.6-1.1.8-.9 1.1l.4.4c.4.4.4.5.2.7-.4.4-.6.4-2.1-.1-.9-.3-1.1-.3-1.6.1-.4.3-.6.4-1.3.7l-.6.3h-.5c-.5 0-.7.1-.7.2 0 0 0 .2.1.3.2.3.2.4.1.5-.2.3-1.6.4-2.5.3h-.8c-.5 0-.8.1-1.3.4-.7.4-1.3.6-1.7.5-.2 0-.3 0-.4-.2-.1-.1-.2-.3-.3-.5-.3-.8-.6-1.1-1-1.1-.5 0-1 .5-1.2 1.2-.1.3-.1.5 0 .6 0 0 .4.2.8.5.4.2.9.5 1 .6.5.3.8.5 1.5.7.5.1.9.3 1 .5l.1.1-.1.1c0 .1-.1.2-.2.2l-.1.1H56c-.7 0-1-.1-1.4-.3-.3-.1-.5-.2-.8-.5-.3.3-.5.2-.8.2-.2 0-.4 0-.8.2-.5.2-.9.3-2 .4-.8.1-.9.1-1 .5 0 .2 0 .5.1.7.1.1.2.3.4.4.2.2 1 .8 1.1.9.1.2 0 .7-.1 1.2 0 0 0 .1-.1.1-.1.3-.4.6-.6.8-.2.2-.3.4-.3.6s.1.4.2.6c.2.2.3.3.8.2.5 0 .9-.2 1.7-.5.5-.2 1-.4 1.4-.5.8-.1 1.4.1 1.9.6.2.2.4.4.6.7.3.5.5 1.2.5 1.9v.4l-.1.1c-.1.1-.3.4-.6.7-.8.8-1.5 1.6-1.7 1.9-.5.7-.6.7-1.3.8-.6.1-.8.2-1.1.3-.2.1-.4.4-.5.6 0 .1 0 .1.1.3.1.1.2.3.3.3.2.2.2.3.2.5 0 .5-.4.9-.8 1.2-.5.3-1.5.6-2.3.8-.5.3-1 .3-1.7.3-1 0-1.8-.2-2.8-.7-.3-.2-1.2-.6-1.5-.8-.2-.2-.6-.5-.7-.7-.1-.3-.1-.5.2-.7.2-.1.4-.1.8.1.5.2.8.3 1.4.4 1 .1 2 .1 2.8 0 .6-.1.7-.2.8-.8.2-.5.5-1.3 1-2 .4-.7.4-.8.4-1.4 0-.4 0-.5-.1-.6-.1-.2-.3-.2-.8-.2s-1 .1-2 .4c-.9.2-1.3.3-2.1.4-1.3.1-2.7-.1-4-.5-.8-.2-1.2-.5-1.7-1-.7-.7-1.3-1.6-1.6-2.5-.2-.6-.3-.7-.5-1-.3-.5-.8-.8-1.3-1.1-.1-.1-.5-.2-.8-.3-1.4-.5-1.9-.7-2.4-1.1-.5-.4-1.1-1-1.6-1.7-.1-.2-.2-.3-.2-.4 0-.1-.1-.3-.2-.5-.1-.3-.2-.5-.4-.5-.1 0-.2 0-.4.3-.1.2-.2.5-.2.7 0 .2 0 .4.1.6.1.3.2.6.5.9.3.3.4.5.4.8 0 .5-.7 1.8-1.5 2.6-.3.3-.5.4-.8.4-.3 0-.5-.1-.8-.4-.3-.3-.5-.4-1.1-.2-.4.1-.6.1-.9-.1-.4-.3-.8-2.2-.9-3.9v-.3c0-1.2.2-2.1.5-2.8.1-.2.2-.4.4-.6.2-.2.4-.3.7-.5.5-.2 1-.6 1.1-.7.3-.3.4-.6.2-1.1-.1-.2-.1-.4-.1-.5v-1.3c.1-.5.2-.6.7-1 .1-.1.2-.2.3-.4l.1-.2v-2l.1-.2c.1-.3.4-.5.9-.7.3-.2.7-.3 1.1-.3.2 0 .4-.1.4-.1.1-.1.3-.2.4-.4.2-.4.5-.7.9-1.1.5-.4.8-.5 1.3-.4.1 0 .5.1.8.2.5.2.6.2.9.2s.3 0 .5-.1c.3-.2.3-.4.6-2.1.1-.5.1-.9.2-1 0-.2.3-.4.7-.6.2-.1.5-.2.6-.2.3-.1.8 0 1.2.1.6.2 1.1.2 1.6 0 .7-.2.9-.3 1.1-.1.2.1.3.4.5 1.4.2 1.1.3 1.5.6 1.9.5.8.7 1.5.5 3.1-.1 1.4-.1 1.4 0 1.6.2.4.6.7 1.5 1.2.3.2 1.1.7 1.7 1.2.7.5 1.5.7 2.2.4.2-.1.6-.3 1.1-.7.8-.6.9-.7 1.8-.7.4 0 .9 0 1.2-.1.5 0 .5 0 .9-.2.5-.2.7-.4 1.1-.7.7-.6 1.2-.9 2.5-1.3 1-.3 1.7-.8 2.3-1.5.4-.6.7-.8 2.1-1.7.4-.2.8-.5 1-.6.5-.4 1.4-1.4 1.7-1.9.1-.2.1-.5 0-.7-.1-.2-.4-.4-1-.8-.3-.2-.6-.3-.6-.3 0-.1.1-.3.2-.3.2-.1.6-.3 1.4-.4.1 0 .2-.1.3-.1.1-.1.1-.1.1-.5 0-.2 0-.5-.1-.7 0-.2-.1-.5-.1-.7 0-.4 0-.5.1-.7.1-.4.2-.6.8-1.5.6-.8.8-1.2.9-1.5.1-.4 0-1.2-.1-1.5s-.5-.4-.7-.3c-.1.1-.2.2-.4.9s-.4 1.1-.7 1.6c-.2.3-.2.4-.5.6-.4.4-.7.5-1.1.3-.5-.2-.8-.2-1.9 0-.4.1-.7.1-.8.1-.4 0-.8-.2-1.4-.6-.9-.6-1.3-1.1-1.8-1.8-.2-.4-.4-.6-.7-.7-.2-.1-.5-.2-1.5-.3-.9-.1-1-.2-1.6-.2-.7 0-1 0-1.9.3-.5.1-.8.2-1.4.6-1.3.7-1.9.9-2.6.9-.7 0-1-.5-1-1.6 0-.5 0-.6.1-.8.2-.6.5-1.1 1-1.6.7-.6 1.5-1.1 2.7-1.4.5-.1.6-.2 1.5-.3.7-.1 1.5-.1 1.9-.1.1 0 .5.1.9.1.6.1.8.1 1.6.1 1.2 0 1.3 0 1.6-.6.3-.6 1-1.3 1.4-1.7.6-.4 1.2-.6 2.5-.8 1-.1 1.7-.2 2.5-.6 1.1-.4 1.7-.4 3 .1 1.3.4 1.8.5 2.8.3.3-.1.8-.1 1-.2.6-.1 1.1-.1 1.4 0 .5.1.8.4 1.4 1.1.5.5.5.5.5 1-.1.5-.1.7-.3 1.1-.2.4-.5.8-.9 1-.3.1-.4.2-1.2.4-.9.2-1.1.3-1.1.8 0 .4.1.7.5.9.3.1.5.2 1.2.2 1.3.1 1.5.1 1.9.6.3.4.4.5.4.7 0 .2-.1.5-.3.9-.2.4-.2.4-.6.8-.2.2-.4.5-.5.5 0 .1 0 .2.1.4.2.2.4.8.5 1.1.1.3.1.5.2 1.3.1.6.2.8 1.1 1.2 1.1.5 2.1 1.1 3.8 2.2 1.1.7 1.4 1 1.6 1.3.1.3.1.5 0 .7-.2.4-.6.4-1.3 0-1.1-.5-1.3-.6-1.6-.6-.7-.1-1.1.3-1.1 1 0 .2 0 .3.1.4.2.4.4.9.5 1.6.2 1.3.4 1.8 1.3 3.1 1.8 2.7 2.7 4 3.2 4.7.6 1.1 1.1 2.2 1.4 3.2.2.6.2.9.3 1.9 0 .5.1 1.6.2 2.6.2 2.5.3 3.4.4 3.6.2.4.5 1 1.2 2 .5.6 1.1 1.4 2 2.4.9 1.1 1.2 1.4 1.6 1.6.3.2.3.1.3-.1 0-.1-.2-.3-.4-.5-.6-.7-.8-.9-.8-1.2-.1-.5.7-.9 1.6-.8h.1c3.4 1.3 6.8 2.8 10 4.4.1 0 .2.1.2.1V.4L0 .3zm84.3 73.4c.1-.3.9-1 1.4-1.3.5-.3.7-.3 1-.2.2.1.3.2.4.4.2.4.2.6-.3 1-.5.5-.8.7-1.2.8-.2.1-.4.1-.7.1-.3 0-.3 0-.4-.1-.2 0-.3-.5-.2-.7zM18 70.2c-.1.1-.3.2-.5.2 0 0-.1 0-.2-.1-.6-.3-.8-.3-1.4-.3-.5 0-1 .1-2.3.3-.4.1-.8.2-.8.1-.1 0-.3-.2-.4-.4-.2-.4-.1-.6.2-.8.6-.3.9-.4 1.6-.4.7 0 .8 0 1.6-.7l.4-.4h.2c.1 0 .3.1.4.2.4.2.8.6 1 1 .2.3.2.6.2.9.1.3.1.3 0 .4zm-3.6-2.8c0-.2.3-.5.4-.6.1 0 .4-.1.5-.1 0 0 .1 0 .1.1.1.1.2.4.3.6.1.4-.1.6-.6.8-.2.1-.3.1-.4.1-.2-.1-.4-.6-.3-.9zm5 4.2c-.6.3-1 0-.7-.4 0-.1.1-.2.2-.4.4-.7.9-1.2 1.2-.9 0 .1.1.1.1.3 0 .7-.2 1.2-.8 1.4zm9.6-6.7c-.2 0-.4-.1-.5-.1-.2-.1-.4-.4-.4-.8 0 0 0-.1.1-.2s.1-.1.8 0c.4 0 .9 0 1.1.1 1 .1 1.9.4 2.5.8.3.2.5.4.7.7.2.4.2.7-.1 1-.3.3-.5.3-.9.2-.5-.1-.9-.4-1.6-1-.7-.5-1.1-.7-1.7-.7zm6.9 13.6c-.2.3-.3.6-.6.8-.2.2-.5.4-.8.6-.3.1-.7.2-1 .2-.4 0-.7-.1-1-.2s-.6-.3-.8-.6c-.2-.2-.4-.5-.6-.8-.1-.3-.2-.7-.2-1 0-.4.1-.7.2-1s.3-.6.6-.8c.2-.2.5-.4.8-.6s.7-.2 1-.2c.4 0 .7.1 1 .2s.6.3.8.6c.2.2.4.5.6.8.1.3.2.7.2 1 0 .4-.1.7-.2 1zm-.1-29.6c.1-.1.1-.1.2-.1h.5c.2.1.4.3.4.6 0 .2 0 .3-.2.4-.3.2-.5.1-.7-.1-.3-.4-.4-.6-.2-.8zm-1.6 4.4s.1-.1.2-.1h.6c.5.1.7.7.5 1-.2.2-.7.3-.9.2-.1-.1-.3-.5-.4-.7v-.4zm-.5-2.6c0 .2-.1.4-.2.4-.1.1-.6.2-.8.2-.2 0-.4-.2-.5-.4-.2-.3-.2-.5-.1-.7 0 0 .3-.1.5-.2 0 0 .2 0 .4.1.3.1.4.1.5.2.2.2.2.3.2.4zM31 47.5c.3-.3.8-.4 1.3-.4.7.1 1 .3 1 .7 0 .2-.1.4-.3.6-.4.4-1.1.5-1.7.3-.3-.1-.4-.2-.5-.4 0-.3 0-.6.2-.8zm-5.5 8.9h1.4l.1-.1.4-1.2c.5-1.7.5-1.8.7-1.9.1-.1.4-.1.7 0 .3.1.4.2.5.6.1.4.1.6 0 .7 0 0-.1.1-.2.1s-.5.3-.5.4l.2.2c.7.3 1.2.4 2.9.1.7-.1 1.1-.1 2.2 0 .9.1 1.3.1 1.8-.1.4-.1.8-.1 1.1 0 .2.1.4.2.6.6.6.8 1.3 1.1 2.5 1.2.8.1 1.5.2 1.6.3.1.1.2.3.2.5s-.2.5-.5.6c-1 .7-2.4 1.1-3.5 1-.4 0-1-.2-1.2-.3-.2-.1-1-.6-1.4-.8-.9-.6-1.6-.8-2.5-.8-.7 0-.9.1-2.8.6-1.3.4-1.3.4-2 .1-.5-.2-1-.2-1.3 0-1.3.6-1.8 2.1-1.4 3.8.3 1 .9 2.2 1.4 2.9.3.3.4.7.2.9-.2.2-.5.2-1 0s-1.7-.8-2.2-1.1c-1-.6-1.2-.7-1.8-1.4-.3-.3-.8-.9-1.1-1.2-.3-.3-.6-.6-.7-.8-.4-.4-1-.8-1.6-.9-.5-.1-1.6-.1-1.9.1-.2.1-.5.5-.5.7 0 .1 0 .2.1.2.1.1.8.6 1.1.8.4.3.4.3.4.7 0 .3 0 .4-.1.5-.2.2-.2.2-1.8.2s-1.7 0-1.9.2c-.2.2-.2.3-.3.7 0 .3 0 .4-.1.5-.1.1-.1.1-.3.1-.2 0-.2 0-.4-.1-.1-.1-.1-.2-.1-.3 0-.3.1-.7.3-1.1.3-.6.4-.8.5-1.3.2-.8.5-1.3 1.1-1.9.5-.5 1.1-.9 1.7-1.2.5-.3 1-.4 1.7-.5.2 0 .6-.1.8-.1.4-.1 1-.3 1.3-.5.2-.1.9-.5 1.5-.8.8-.4 1.4-.5 2.1-.6.6-.3 1.4-.3 2-.3zm-.9-8.7c.1.3.1.4.1.5 0 .1-.1.2-.2.3-.1.1-.2.2-.3.2-.1 0-.2 0-.6-.2-.5-.2-.6-.3-.8-.1-.1.2-.2.5-.2.8 0 .3.1 1 .2 1.2.1.3.4.7 1 1.3.6.7.9 1 1 1.3.2.5.3.9.3 1.2-.1.3-.9.7-1.5.7-.8 0-1.4-.4-2.2-1.5-.5-.6-.9-1.5-1.2-2.3-.3-.8-.3-1.2.1-1.7.3-.5.4-.8.3-1.1 0-.1-.2-.3-.3-.5-.3-.4-.4-.6-.4-.9 0-.3.1-.5.5-1 .3-.5.5-.7.9-1.1.4-.4 1.6-1.5 1.7-1.6.1-.1.3 0 .5 0 .2.1.3.2.3.3 0 .2.1.9.1 1.5 0 .9.1 1.3.5 2-.1.2.1.5.2.7zm25.1-27.9c.1-.2.5-.6.8-.7.3-.2.5-.2 1.3-.2s1 0 1.5-.2c.2-.1.4-.1.5-.2.5-.3.5-.3.7-.3.1 0 .2 0 .3.1.2.1.2.2.3.4.1.3.1.7 0 .9-.1.1-.3.1-1.5.3-1.3.2-1.6.3-2.1.8-.1.1-.3.2-.4.3-.2.1-.3.1-.5.1-.4 0-.5 0-.6-.3-.4-.6-.4-.8-.3-1zm-2.1 6.9c.7-.1 1.1-.2 1.8-.6.8-.4 1-.5 2.2-.7 1.9-.4 3.1-.8 4-1.4.4-.2.5-.2 1.1-.2.2 0 .4.1.5.1.4.2.7.6.7 1 0 .2 0 .2-.1.3-.2.2-.3.2-.6.2-.2 0-.3 0-.4.1l-.1.1c0 .1-.1.2-.6.3-.6.2-1.1.3-1.6.4-.2 0-.4 0-.5.1-.2.1-.5.3-.8.6-.2.2-.4.3-.5.4-.2.1-.2.1-.6.1s-.4 0-.8-.1c-.5-.2-1.2-.4-1.3-.4l-.4.2c-.8.5-1.7.8-2.6.9-.4 0-.4 0-.5-.1s-.2-.4-.2-.5c.2-.3.6-.7 1.3-.8zm-1.2-9.2c.1.1.2.5.2.7 0 .1-.1.2-.2.3-.1.1-.3.3-.5.4-.4.4-.6.9-.5 1.3.1.2.4.6.7.9.4.3.5.6.5 1s-.1.6-.3.7c-.1.1-.2.1-.5 0-.5 0-.9-.2-1.2-.6-.2-.2-.3-.5-.3-1s-.1-.6-.2-.8c-.2-.2-.4-.2-.8 0-.2.1-.6.1-1.1 0h-1.1c-1.1 0-1.1 0-1.2.5-.2.8-.8 1.5-1.5 1.9-.4.2-1.2.5-1.4.4-.2-.1-.3-.6-.2-.9.1-.2.2-.4.5-.5.2-.1.4-.2 1.1-.3.3-.1.6-.1.6-.2.2-.2.2-.4-.1-.7-.2-.3-.3-.3-.3-.5s.2-.5.4-.7c.3-.3.7-.5 1.3-.6.8-.2 1.3-.4 1.7-.7.1-.1.3-.2.4-.2.2-.1.7-.1 1.2-.1.4 0 1.2 0 1.7-.1.2 0 .4-.1.6-.1.2-.2.4-.2.5-.1zm33.7 11.3c-.2.4-.8.4-1.3 0-.1-.1-.1-.1-.1-.2s.1-.3.2-.4c.1-.1.1-.1.4 0 .2 0 .4 0 .5.1.3 0 .4.2.3.5zm.6 17.7c-.5-1-.9-1.3-2.1-1.5-.4-.1-1.6-.1-2.1 0-.7.1-1.6.3-2.2.5-.8.3-1.8.9-2.6 1.5-.7.5-3.2 2.6-4.4 3.6-.8.7-1 .8-1.4 1-.8.4-1.6.5-2.4.3-.3-.1-.4-.2-.6-.5-.1-.2-.1-.3-.1-.6v-1c.1-1.1.1-1.4-.2-1.7-.2-.2-.5-.4-.9-.3-.1 0-.3.1-.5.2-.4.2-.6.2-.7.1 0 0-.2-.1-.3-.2-.3-.2-.5-.3-1.1-.3-.5 0-.7 0-.8.2 0 .1-.1.2-.1.3 0 .2 0 .2.2.6.1.1.1.3.2.5 0 .1.1.1.1.2.2.5.4.8 1.4 2.1.4.5 1 1.3 1.3 1.6.3.3.6.7.6.8.3.2.7.4.9.3 0 0 .2-.2.4-.3.2-.2.4-.3.4-.4.2-.1.4-.1.6 0h.2c.1.2.1.3 0 .7-.2.5-.2.8-.2 1.3s.1.7.4.8c.4.3 1.1.5 1.6.5.3 0 .9 0 1.6-.1.4 0 .8-.1 1.2-.2 1.1-.2 1.3-.2 2.1.2.7.3.9.4 1.5.2 1.2-.2 2.3-.8 3.2-1.7.4-.4.4-.4.4-1.5s0-1 .4-1.2c1.2-.4 2.3-1.2 3.2-2 .5-.5.8-.9 1-1.2.2-.4.2-.6.3-1 0-.4-.2-1-.5-1.8zm-11.1 4.8c-1.3 1-1.4 1.1-1.7 1.1-.2 0-.6-.1-.7-.2v-.4l.5-.6c.7-.7 1.8-1.8 2.1-2 .1-.1.4-.3.7-.4.4-.2.5-.2.6-.2.1 0 .2 0 .3.1.4.2.4.8 0 1.2-.1.1-.3.2-.5.4 0 .1-.7.5-1.3 1zm3.8-.3c-.1.2-.5.6-1.2 1.2-.6.5-.6.5-.8.5-.1 0-.3-.2-.4-.3l-.1-.2c0-.1 0-.2.5-.7l.9-.9.4-.4h.2c.3 0 .3 0 .4.1.2.2.2.5.1.7zm-3.5-32.3c0-.2-.1-.2-.1-.3-.1-.1-.2-.1-.3 0-.1.1-.6.8-.9 1.4-.2.4-.4.9-.5 1.3-.1.4-.1.4.2.5.2.1.4.1.5.1.2-.1.7-.6.8-.9.4-.6.5-1.2.3-2.1zm-6.2 13.2h-.3c-.4.1-.8.5-1 .8-.1.1-.1.2-.1.4v.2h.1c.1 0 .2 0 .7-.4.7-.6.7-.6.7-.8v-.2h-.1zm-2.2-16.5c-.3-.3-.6-.5-.8-.3-.2.1-.3.3-.4.6v.7c0 .1.2.1.5.1s.3 0 .5-.1.3-.3.3-.6 0-.3-.1-.4zm-8.1 19.3s-.1 0-.2-.1c-.2 0-.2 0-.5.1-.5.2-1.1.6-1.4.8-.5.3-.7.5-.8.8-.2.5-.2.8.2.8.1 0 .2 0 .8-.5 1.5-1 1.6-1.1 1.9-1.6.1 0 .1-.2 0-.3zm-15.1.9c-.1-.8-.6-1.7-1.4-2.5-.2-.2-.5-.5-.6-.5-.5-.3-1.1-.5-1.3-.3l-.2.2-.1.2.1.1s.2.2.4.3c.5.3.9.6 1.3 1s.6.7.9 1.2c.3.5.4.7.6.9.3.1.4 0 .3-.6zM37 37.8c-.1-.2-.2-.3-.7-.5-1.2-.4-1.8-.7-2.4-1-1-.6-1.6-1.4-1.9-2.5-.2-.6-.3-1.1-.3-2 0-.5 0-.8-.1-.8-.1-.1-.1-.1-.2 0s-.2.3-.4.9c-.3.7-.6 1.4-.9 1.7-.4.5-.4.6-.5.9-.1.2-.1.3-.1.4 0 .1 1.2 1.3 1.9 1.9 1.1 1 2.3 1.8 3.1 2.1.8.3 1.5.4 1.8.2.6-.2.8-.7.7-1.3zm-5.5 1.3c0-.3 0-.4-.2-.5-.2-.2-.8-.3-1-.1-.3.1-.5.6-.4 1 .1.4.3.7.7.7.3 0 .5-.1.7-.3.2-.2.2-.4.2-.8z" class="st1"/>
  </g>
</svg>
